<svg width="65" height="65" viewBox="0 0 65 65" fill="none" xmlns="http://www.w3.org/2000/svg">
<g opacity="0.3">
<path d="M58.8047 32.5C59.0078 32.2969 59.1094 32.0938 59.3125 31.8906C63.2735 26.2031 64.086 21.0234 61.6485 17.1641C59.4141 13.6094 54.5391 11.5781 48.0391 11.5781C46.9219 11.5781 45.7032 11.6797 44.4844 11.7812C41.5391 5.78906 37.2735 2.03125 32.5 2.03125C27.7266 2.03125 23.461 5.78906 20.5157 11.7812C19.2969 11.6797 18.0782 11.5781 16.961 11.5781C10.461 11.5781 5.58597 13.5078 3.3516 17.1641C0.914095 21.0234 1.72659 26.3047 5.68753 31.8906C5.89066 32.0938 6.09378 32.2969 6.19534 32.5C5.99222 32.7031 5.89066 32.9062 5.68753 33.1094C1.82816 38.7969 1.01566 44.0781 3.45316 47.9375C5.68753 51.4922 10.5625 53.5234 17.0625 53.5234C18.1797 53.5234 19.3985 53.4219 20.6172 53.3203C23.461 59.2109 27.7266 62.9688 32.5 62.9688C37.2735 62.9688 41.5391 59.2109 44.4844 53.2188C45.7032 53.3203 46.9219 53.4219 48.0391 53.4219C54.5391 53.4219 59.4141 51.4922 61.6485 47.8359C64.086 43.9766 63.2735 38.6953 59.3125 33.1094C59.1094 32.9062 58.9063 32.7031 58.8047 32.5ZM47.9375 13.3047C53.7266 13.3047 57.9922 14.9297 59.9219 17.9766C61.9532 21.2266 61.1407 25.7969 57.586 30.875L57.4844 30.9766C54.9453 27.9297 51.5938 24.8828 47.6328 22.2422C47.0235 18.9922 46.211 16.0469 45.0938 13.4062C46.1094 13.3047 47.125 13.3047 47.9375 13.3047ZM40.4219 45.0938C37.7813 46.5156 35.1407 47.6328 32.5 48.6484C29.8594 47.6328 27.1172 46.5156 24.5782 45.0938C22.6485 44.0781 20.8203 42.9609 18.9922 41.7422C18.4844 38.7969 18.1797 35.6484 18.1797 32.3984C18.1797 29.1484 18.4844 26 18.9922 23.0547C20.7188 21.8359 22.5469 20.8203 24.5782 19.7031C27.2188 18.2812 29.8594 17.1641 32.5 16.1484C35.1407 17.1641 37.8828 18.2812 40.4219 19.7031C42.3516 20.7188 44.1797 21.8359 46.0078 23.0547C46.5157 26 46.8203 29.1484 46.8203 32.3984C46.8203 35.6484 46.5157 38.7969 46.0078 41.7422C44.2813 42.9609 42.3516 44.0781 40.4219 45.0938ZM45.5 44.2812C44.8907 46.8203 44.1797 49.2578 43.1641 51.3906C40.5235 51.0859 37.8828 50.4766 35.1407 49.5625C37.2735 48.75 39.3047 47.7344 41.336 46.7188C42.8594 45.9062 44.1797 45.0938 45.5 44.2812ZM29.8594 49.5625C27.1172 50.375 24.375 50.9844 21.836 51.3906C20.9219 49.2578 20.1094 46.9219 19.5 44.2812C20.8203 45.0938 22.1407 45.9062 23.5625 46.6172C25.6953 47.7344 27.7266 48.6484 29.8594 49.5625ZM16.8594 40.3203C13.6094 37.8828 10.7657 35.2422 8.63284 32.5C10.7657 29.7578 13.6094 27.1172 16.8594 24.6797C16.5547 27.1172 16.3516 29.7578 16.3516 32.5C16.3516 35.2422 16.4532 37.7812 16.8594 40.3203ZM19.5 20.7188C20.1094 18.1797 20.8203 15.7422 21.836 13.6094C24.4766 13.9141 27.1172 14.5234 29.8594 15.4375C27.7266 16.25 25.6953 17.2656 23.6641 18.3828C22.1407 19.0938 20.8203 19.9062 19.5 20.7188ZM35.1407 15.4375C37.8828 14.625 40.625 14.0156 43.1641 13.6094C44.0782 15.7422 44.8907 18.0781 45.5 20.7188C44.1797 19.9062 42.8594 19.0938 41.4375 18.3828C39.3047 17.2656 37.2735 16.3516 35.1407 15.4375ZM48.1407 24.6797C51.3907 27.1172 54.2344 29.7578 56.3672 32.5C54.2344 35.2422 51.3907 37.8828 48.1407 40.3203C48.4453 37.8828 48.6485 35.2422 48.6485 32.5C48.6485 29.7578 48.5469 27.2188 48.1407 24.6797ZM32.5 3.96094C36.3594 3.96094 39.8125 7.00781 42.4532 11.9844C39.3047 12.4922 35.9532 13.3047 32.5 14.5234C29.1485 13.3047 25.7969 12.4922 22.5469 11.9844C25.1875 7.00781 28.6407 3.96094 32.5 3.96094ZM7.31253 30.875C3.75784 25.7969 2.94535 21.2266 4.9766 17.9766C6.90628 14.9297 11.1719 13.3047 16.961 13.3047C17.875 13.3047 18.7891 13.3047 19.7032 13.4062C18.586 16.0469 17.7735 18.9922 17.1641 22.2422C13.3047 24.8828 9.95316 27.9297 7.31253 30.875ZM17.0625 51.6953C11.2735 51.6953 7.00784 50.0703 5.07816 47.0234C3.04691 43.7734 3.85941 39.2031 7.41409 34.125C7.41409 34.125 7.41409 34.0234 7.51566 34.0234C10.0547 37.0703 13.4063 40.1172 17.3672 42.7578C17.9766 46.0078 18.7891 48.9531 19.9063 51.5938C18.8907 51.6953 17.9766 51.6953 17.0625 51.6953ZM32.5 61.0391C28.6407 61.0391 25.1875 57.9922 22.5469 53.0156C25.6953 52.5078 29.0469 51.6953 32.5 50.4766C35.8516 51.6953 39.2032 52.5078 42.4532 53.0156C39.8125 57.9922 36.3594 61.0391 32.5 61.0391ZM59.9219 47.0234C57.9922 50.0703 53.7266 51.6953 47.9375 51.6953C47.0235 51.6953 46.1094 51.6953 45.1953 51.5938C46.3125 48.9531 47.125 46.0078 47.7344 42.7578C51.5938 40.1172 54.9453 37.0703 57.586 34.0234C57.586 34.0234 57.586 34.125 57.6875 34.125C61.2422 39.2031 62.0547 43.7734 59.9219 47.0234Z" fill="#4258A8"/>
<path d="M32.5 38.1875C35.6411 38.1875 38.1875 35.6411 38.1875 32.5C38.1875 29.3589 35.6411 26.8125 32.5 26.8125C29.3589 26.8125 26.8125 29.3589 26.8125 32.5C26.8125 35.6411 29.3589 38.1875 32.5 38.1875Z" fill="#F82D93"/>
</g>
</svg>
