<svg width="181" height="49" viewBox="0 0 181 49" fill="none" xmlns="http://www.w3.org/2000/svg">
<g clip-path="url(#clip0_19_441)">
<path d="M57.9008 14.7538C57.4715 14.7538 57.1495 14.5923 56.9349 14.3231C56.7202 14 56.7739 13.6769 56.9349 13.2461L61.9254 2.15384C62.0864 1.77691 62.301 1.50768 62.5157 1.34614C62.7303 1.18461 62.9986 1.13076 63.3206 1.13076C63.5889 1.13076 63.8572 1.18461 64.1255 1.34614C64.3402 1.50768 64.5548 1.77691 64.7158 2.15384L69.7063 13.1923C69.921 13.6231 69.921 14 69.76 14.2692C69.599 14.5385 69.277 14.7 68.8477 14.7C68.4721 14.7 68.2038 14.5923 68.0428 14.4308C67.8282 14.2692 67.6672 14 67.5062 13.6231L66.5403 11.4154H60.1009L59.1887 13.6231C59.0277 14 58.8667 14.2692 58.7057 14.4308C58.5447 14.5923 58.2228 14.7538 57.9008 14.7538ZM63.3206 3.93076L60.9595 9.58461H65.789L63.3206 3.93076ZM77.6482 14.7538C76.253 14.7538 75.0725 14.4846 74.1065 13.8923C73.1406 13.3538 72.3894 12.5461 71.8528 11.5231C71.3161 10.5 71.0478 9.26153 71.0478 7.91538C71.0478 6.51538 71.3161 5.33076 71.8528 4.30768C72.3894 3.28461 73.1406 2.47691 74.1065 1.93845C75.0725 1.39999 76.253 1.07691 77.6482 1.07691C78.3458 1.07691 78.9897 1.18461 79.6873 1.34614C80.3313 1.50768 80.9215 1.77691 81.4582 2.09999C81.7801 2.31537 81.9948 2.58461 82.0484 2.85384C82.1021 3.12307 82.0484 3.44614 81.9411 3.66153C81.7801 3.93076 81.6191 4.0923 81.2972 4.14614C80.9752 4.19999 80.7069 4.14614 80.3849 3.93076C80.0093 3.66153 79.58 3.49999 79.1507 3.3923C78.7214 3.28461 78.2385 3.23076 77.7555 3.23076C76.414 3.23076 75.3944 3.66153 74.6968 4.46922C73.9992 5.27691 73.6236 6.40768 73.6236 7.91538C73.6236 9.42307 73.9992 10.5538 74.6968 11.3615C75.3944 12.1692 76.414 12.6 77.7555 12.6C78.2385 12.6 78.7214 12.5461 79.1507 12.4385C79.6337 12.3308 80.063 12.1154 80.4923 11.9C80.8142 11.6846 81.1362 11.6308 81.4045 11.6846C81.6728 11.7385 81.8875 11.9 81.9948 12.1692C82.1021 12.4385 82.1558 12.6538 82.1021 12.9231C82.0484 13.1923 81.8875 13.4615 81.6191 13.6769C81.1362 14.0538 80.5459 14.3231 79.8483 14.5385C79.0434 14.7 78.3458 14.7538 77.6482 14.7538ZM84.0876 14.7538C83.6583 14.7538 83.3363 14.5923 83.1217 14.3231C82.907 14 82.9607 13.6769 83.1217 13.2461L88.1658 2.15384C88.3268 1.77691 88.5415 1.50768 88.7561 1.34614C88.9708 1.18461 89.2391 1.13076 89.561 1.13076C89.8293 1.13076 90.0976 1.18461 90.366 1.34614C90.5806 1.50768 90.7953 1.77691 90.9562 2.15384L95.9467 13.1923C96.1614 13.6231 96.1614 14 96.0004 14.2692C95.8394 14.5385 95.5175 14.7 95.0882 14.7C94.7125 14.7 94.4442 14.5923 94.2832 14.4308C94.0686 14.2692 93.9076 14 93.7466 13.6231L92.7807 11.4154H86.2877L85.3754 13.6231C85.2145 14 85.0535 14.2692 84.8925 14.4308C84.7315 14.5923 84.4095 14.7538 84.0876 14.7538ZM89.5074 3.93076L87.1463 9.58461H91.9758L89.5074 3.93076ZM99.2201 14.5923C98.3615 14.5923 97.9322 14.1615 97.9322 13.3V2.58461C97.9322 1.72307 98.3615 1.2923 99.2201 1.2923H102.869C105.069 1.2923 106.786 1.88461 108.021 3.01537C109.255 4.14614 109.845 5.81537 109.845 7.91538C109.845 10.0154 109.255 11.6846 108.021 12.8154C106.786 13.9461 105.123 14.5385 102.869 14.5385H99.2201V14.5923ZM100.347 12.6H102.708C105.767 12.6 107.269 11.0385 107.269 7.91538C107.269 4.84614 105.767 3.28461 102.708 3.28461H100.347V12.6ZM113.548 14.5923C112.689 14.5923 112.26 14.1615 112.26 13.3V2.58461C112.26 1.72307 112.689 1.2923 113.548 1.2923H120.255C120.899 1.2923 121.221 1.61537 121.221 2.26153C121.221 2.90768 120.899 3.23076 120.255 3.23076H114.567V6.8923H119.826C120.47 6.8923 120.792 7.21538 120.792 7.86153C120.792 8.50768 120.47 8.83076 119.826 8.83076H114.567V12.7077H120.255C120.899 12.7077 121.221 13.0308 121.221 13.6769C121.221 14.3231 120.899 14.6461 120.255 14.6461H113.548V14.5923ZM124.656 14.7538C123.904 14.7538 123.582 14.3769 123.582 13.6231V2.26153C123.582 1.50768 123.958 1.13076 124.709 1.13076C125.031 1.13076 125.246 1.18461 125.461 1.2923C125.622 1.39999 125.783 1.61537 125.943 1.88461L130.29 9.96153L134.637 1.88461C134.798 1.61537 134.959 1.39999 135.12 1.2923C135.281 1.18461 135.549 1.13076 135.871 1.13076C136.622 1.13076 136.944 1.50768 136.944 2.26153V13.6231C136.944 14.3769 136.568 14.7538 135.871 14.7538C135.173 14.7538 134.798 14.3769 134.798 13.6231V5.59999L131.256 12.0615C131.149 12.2769 130.988 12.4385 130.88 12.5461C130.719 12.6538 130.558 12.7077 130.29 12.7077C130.075 12.7077 129.861 12.6538 129.7 12.5461C129.539 12.4385 129.431 12.2769 129.324 12.0615L125.782 5.65384V13.5692C125.729 14.3769 125.353 14.7538 124.656 14.7538ZM144.188 14.7538C143.383 14.7538 143.008 14.3231 143.008 13.5154V8.50768L138.983 2.79999C138.822 2.58461 138.769 2.31537 138.769 2.09999C138.769 1.83076 138.876 1.61537 139.091 1.45384C139.305 1.2923 139.52 1.18461 139.895 1.18461C140.378 1.18461 140.808 1.45384 141.183 1.93845L144.296 6.35384L147.408 1.93845C147.623 1.66922 147.784 1.45384 147.998 1.34614C148.159 1.23845 148.428 1.18461 148.696 1.18461C149.179 1.18461 149.501 1.34614 149.662 1.72307C149.823 2.09999 149.769 2.47691 149.447 2.85384L145.423 8.50768V13.4615C145.369 14.3231 144.993 14.7538 144.188 14.7538ZM162.487 14.7538C161.199 14.7538 160.072 14.4846 159.106 13.8923C158.14 13.3 157.389 12.5461 156.852 11.5231C156.316 10.5 156.048 9.31538 156.048 7.91538C156.048 6.51538 156.316 5.33076 156.852 4.30768C157.389 3.28461 158.14 2.47691 159.053 1.93845C160.018 1.39999 161.145 1.07691 162.433 1.07691C163.721 1.07691 164.848 1.34614 165.814 1.93845C166.78 2.47691 167.531 3.28461 168.014 4.30768C168.551 5.33076 168.819 6.51538 168.819 7.91538C168.819 9.31538 168.551 10.5 168.014 11.5231C167.477 12.5461 166.726 13.3538 165.814 13.8923C164.902 14.4846 163.775 14.7538 162.487 14.7538ZM162.487 12.7077C163.721 12.7077 164.633 12.2769 165.331 11.4692C166.029 10.6077 166.351 9.47691 166.351 7.96922C166.351 6.46153 166.029 5.27691 165.331 4.46922C164.687 3.66153 163.721 3.23076 162.487 3.23076C161.253 3.23076 160.34 3.66153 159.643 4.46922C158.945 5.27691 158.623 6.46153 158.623 7.96922C158.623 9.47691 158.945 10.6615 159.643 11.4692C160.34 12.2769 161.253 12.7077 162.487 12.7077ZM172.522 14.7538C171.717 14.7538 171.287 14.3231 171.287 13.4615V2.58461C171.287 1.72307 171.717 1.2923 172.575 1.2923H179.122C179.766 1.2923 180.088 1.61537 180.088 2.26153C180.088 2.90768 179.766 3.23076 179.122 3.23076H173.702V6.99999H178.746C179.39 6.99999 179.712 7.32307 179.712 7.96922C179.712 8.61538 179.39 8.93845 178.746 8.93845H173.702V13.4615C173.702 14.3231 173.327 14.7538 172.522 14.7538ZM58.974 34.5154C58.1691 34.5154 57.7398 34.0846 57.7398 33.2769V22.4C57.7398 21.5923 58.1154 21.1615 58.9204 21.1615C59.7253 21.1615 60.1009 21.5923 60.1009 22.4V32.4692H65.5744C66.272 32.4692 66.6476 32.7923 66.6476 33.4923C66.6476 34.1923 66.272 34.5154 65.5744 34.5154H58.974ZM68.2038 34.6769C67.7745 34.6769 67.4525 34.5154 67.2379 34.2461C67.0232 33.9231 67.0769 33.6 67.2379 33.1692L72.1747 22.1308C72.3357 21.7538 72.5504 21.4846 72.765 21.3231C72.9797 21.1615 73.248 21.1077 73.5699 21.1077C73.8382 21.1077 74.1065 21.1615 74.3749 21.3231C74.5895 21.4846 74.8041 21.7538 74.9651 22.1308L79.9556 33.1692C80.1703 33.6 80.1703 33.9769 80.0093 34.2461C79.8483 34.5154 79.5263 34.6769 79.0971 34.6769C78.7214 34.6769 78.4531 34.5692 78.2921 34.4077C78.0775 34.2461 77.9165 33.9769 77.7555 33.6L76.7896 31.3923H70.2966L69.3843 33.6C69.2234 33.9769 69.0624 34.2461 68.9014 34.4077C68.7404 34.5692 68.5258 34.6769 68.2038 34.6769ZM73.5699 23.8538L71.2088 29.5077H76.0384L73.5699 23.8538ZM83.1753 34.6769C82.4241 34.6769 82.0484 34.3 82.0484 33.4923V22.2923C82.0484 21.9154 82.1558 21.5923 82.3167 21.3769C82.5314 21.1615 82.746 21.0538 83.068 21.0538C83.3363 21.0538 83.551 21.1077 83.7119 21.2154C83.8729 21.3231 84.0339 21.4846 84.2486 21.7538L90.9562 30.4769V22.1846C90.9562 21.4308 91.3319 21.0538 92.0831 21.0538C92.8344 21.0538 93.21 21.4308 93.21 22.1846V33.4923C93.21 33.8692 93.1027 34.1385 92.9417 34.3C92.7807 34.5154 92.5124 34.6231 92.2441 34.6231C91.9758 34.6231 91.7075 34.5692 91.5465 34.4615C91.3855 34.3538 91.1709 34.1923 91.0099 33.9231L84.2486 25.2V33.4923C84.2486 34.2461 83.9266 34.6769 83.1753 34.6769ZM102.493 34.6769C101.045 34.6769 99.8104 34.4077 98.7908 33.8692C97.7712 33.3308 97.02 32.5231 96.4834 31.5C95.9467 30.4769 95.6784 29.2923 95.6784 27.8923C95.6784 26.4923 95.9467 25.2538 96.4834 24.2308C97.02 23.2077 97.8249 22.4 98.7908 21.8615C99.8104 21.3231 101.045 21 102.44 21C103.137 21 103.835 21.1077 104.533 21.2692C105.23 21.4308 105.928 21.7 106.518 22.1308C106.786 22.2923 106.947 22.5077 107.001 22.7769C107.055 23.0461 107.001 23.3154 106.894 23.5308C106.786 23.7461 106.572 23.9615 106.303 24.0154C106.035 24.1231 105.767 24.0692 105.498 23.9077C105.016 23.6385 104.533 23.4231 104.05 23.3154C103.567 23.2077 103.03 23.1 102.44 23.1C101.045 23.1 99.9714 23.5308 99.2738 24.3385C98.5762 25.1461 98.2005 26.3308 98.2005 27.8923C98.2005 29.4538 98.5762 30.6385 99.3274 31.4461C100.079 32.2538 101.152 32.6308 102.601 32.6308C103.03 32.6308 103.459 32.5769 103.889 32.5231C104.318 32.4692 104.747 32.3615 105.177 32.2V29.1308H103.084C102.44 29.1308 102.118 28.8077 102.118 28.2154C102.118 27.6231 102.44 27.3538 103.084 27.3538H106.196C106.84 27.3538 107.162 27.6769 107.162 28.3231V32.9C107.162 33.4923 106.947 33.8692 106.464 34.0308C105.928 34.2461 105.284 34.4077 104.586 34.5154C103.889 34.6231 103.137 34.6769 102.493 34.6769ZM115.426 34.6769C113.601 34.6769 112.206 34.1923 111.24 33.2769C110.274 32.3077 109.791 30.9077 109.791 29.0769V22.2923C109.791 21.4846 110.167 21.0538 110.972 21.0538C111.777 21.0538 112.152 21.4846 112.152 22.2923V29.0231C112.152 30.2077 112.421 31.1231 112.957 31.7154C113.494 32.3077 114.299 32.6308 115.319 32.6308C117.411 32.6308 118.485 31.4461 118.485 29.0231V22.2923C118.485 21.4846 118.86 21.0538 119.665 21.0538C120.47 21.0538 120.846 21.4846 120.846 22.2923V29.0769C120.846 30.9615 120.363 32.3615 119.45 33.2769C118.646 34.2461 117.25 34.6769 115.426 34.6769ZM123.851 34.6769C123.421 34.6769 123.099 34.5154 122.885 34.2461C122.67 33.9231 122.724 33.6 122.885 33.1692L127.822 22.1308C127.983 21.7538 128.197 21.4846 128.412 21.3231C128.627 21.1615 128.895 21.1077 129.217 21.1077C129.485 21.1077 129.753 21.1615 130.022 21.3231C130.236 21.4846 130.451 21.7538 130.612 22.1308L135.603 33.1692C135.817 33.6 135.817 33.9769 135.656 34.2461C135.495 34.5154 135.173 34.6769 134.744 34.6769C134.368 34.6769 134.1 34.5692 133.939 34.4077C133.724 34.2461 133.563 33.9769 133.402 33.6L132.437 31.3923H125.943L125.031 33.6C124.87 33.9769 124.709 34.2461 124.548 34.4077C124.441 34.5692 124.173 34.6769 123.851 34.6769ZM129.217 23.8538L126.856 29.5077H131.685L129.217 23.8538ZM143.813 34.6769C142.364 34.6769 141.13 34.4077 140.11 33.8692C139.091 33.3308 138.339 32.5231 137.803 31.5C137.266 30.4769 136.998 29.2923 136.998 27.8923C136.998 26.4923 137.266 25.2538 137.803 24.2308C138.339 23.2077 139.144 22.4 140.11 21.8615C141.13 21.3231 142.364 21 143.759 21C144.457 21 145.154 21.1077 145.852 21.2692C146.549 21.4308 147.247 21.7 147.837 22.1308C148.106 22.2923 148.267 22.5077 148.32 22.7769C148.374 23.0461 148.32 23.3154 148.213 23.5308C148.106 23.7461 147.891 23.9615 147.623 24.0154C147.354 24.1231 147.086 24.0692 146.818 23.9077C146.335 23.6385 145.852 23.4231 145.369 23.3154C144.886 23.2077 144.349 23.1 143.759 23.1C142.364 23.1 141.291 23.5308 140.593 24.3385C139.895 25.1461 139.52 26.3308 139.52 27.8923C139.52 29.4538 139.895 30.6385 140.647 31.4461C141.398 32.2538 142.471 32.6308 143.92 32.6308C144.349 32.6308 144.779 32.5769 145.208 32.5231C145.637 32.4692 146.067 32.3615 146.496 32.2V29.1308H144.403C143.759 29.1308 143.437 28.8077 143.437 28.2154C143.437 27.6231 143.759 27.3538 144.403 27.3538H147.515C148.159 27.3538 148.481 27.6769 148.481 28.3231V32.9C148.481 33.4923 148.267 33.8692 147.784 34.0308C147.247 34.2461 146.603 34.4077 145.906 34.5154C145.208 34.6231 144.457 34.6769 143.813 34.6769ZM152.56 34.5154C151.701 34.5154 151.272 34.0846 151.272 33.2231V22.5077C151.272 21.6461 151.701 21.2154 152.56 21.2154H159.267C159.911 21.2154 160.233 21.5385 160.233 22.1846C160.233 22.8308 159.911 23.1538 159.267 23.1538H153.579V26.8154H158.838C159.482 26.8154 159.804 27.1385 159.804 27.7846C159.804 28.4308 159.482 28.7538 158.838 28.7538H153.579V32.6308H159.267C159.911 32.6308 160.233 32.9538 160.233 33.6C160.233 34.2461 159.911 34.5692 159.267 34.5692H152.56V34.5154ZM166.833 34.6769C165.975 34.6769 165.17 34.5692 164.365 34.4077C163.56 34.1923 162.863 33.9231 162.272 33.5461C162.004 33.3308 161.789 33.1154 161.736 32.8461C161.682 32.5769 161.682 32.3077 161.789 32.0385C161.897 31.7692 162.058 31.6077 162.272 31.5538C162.487 31.4461 162.755 31.5 163.077 31.7154C163.614 32.0385 164.204 32.3077 164.848 32.4154C165.492 32.5231 166.082 32.6308 166.78 32.6308C167.746 32.6308 168.497 32.4692 168.926 32.1461C169.356 31.8231 169.624 31.3923 169.624 30.8538C169.624 30.4231 169.463 30.0461 169.141 29.8308C168.819 29.5615 168.282 29.3461 167.477 29.1846L165.385 28.7538C163.024 28.2692 161.843 27.0308 161.843 25.0923C161.843 24.2846 162.058 23.5308 162.487 22.9385C162.916 22.3461 163.56 21.8615 164.311 21.4846C165.063 21.1615 165.975 21 166.994 21C167.746 21 168.443 21.1077 169.141 21.2692C169.839 21.4846 170.429 21.7538 170.965 22.0769C171.234 22.2385 171.341 22.4538 171.395 22.7231C171.448 22.9923 171.395 23.2077 171.287 23.4231C171.18 23.6385 171.019 23.8 170.751 23.8538C170.482 23.9077 170.214 23.9077 169.892 23.6923C169.409 23.4231 168.98 23.2615 168.497 23.1C168.014 22.9923 167.531 22.9385 166.941 22.9385C166.082 22.9385 165.385 23.1 164.902 23.4769C164.419 23.8538 164.15 24.3385 164.15 24.9308C164.15 25.3615 164.311 25.7385 164.58 26.0077C164.902 26.2769 165.385 26.4923 166.136 26.6538L168.175 27.0846C169.409 27.3538 170.321 27.7846 170.965 28.3231C171.556 28.9154 171.878 29.6692 171.878 30.5846C171.878 31.3923 171.663 32.0923 171.234 32.6846C170.804 33.2769 170.214 33.7615 169.409 34.0846C168.873 34.5154 167.907 34.6769 166.833 34.6769ZM59.6716 46.7923C59.4033 46.7923 59.1887 46.7385 58.974 46.6308C58.7594 46.5231 58.5984 46.3615 58.4911 46.1461V46.3077C58.4911 46.6308 58.3301 46.7923 58.0618 46.7923C57.7398 46.7923 57.5788 46.6308 57.5788 46.3077V41.8923C57.5788 41.5692 57.7398 41.4077 58.0618 41.4077C58.3837 41.4077 58.5447 41.5692 58.5447 41.8923V43.6154C58.6521 43.4538 58.813 43.2923 59.0277 43.1846C59.2423 43.0769 59.457 43.0231 59.7253 43.0231C60.0473 43.0231 60.3156 43.0769 60.5839 43.2385C60.7985 43.4 61.0132 43.6154 61.1205 43.8846C61.2278 44.1538 61.3351 44.4769 61.3351 44.9077C61.3351 45.2846 61.2815 45.6077 61.1205 45.9308C61.0132 46.2 60.7985 46.4154 60.5839 46.5769C60.2619 46.6846 59.9936 46.7923 59.6716 46.7923ZM59.4033 46.0923C59.6716 46.0923 59.8863 45.9846 60.0473 45.7692C60.2082 45.5538 60.3156 45.2846 60.3156 44.8538C60.3156 44.4769 60.2082 44.1538 60.0473 43.9385C59.8863 43.7231 59.6716 43.6692 59.4033 43.6692C59.135 43.6692 58.9204 43.7769 58.7594 43.9385C58.5984 44.1538 58.4911 44.4231 58.4911 44.8538C58.4911 45.2308 58.5984 45.5538 58.7594 45.7692C58.9204 45.9846 59.135 46.0923 59.4033 46.0923ZM62.8376 48.0846C62.6767 48.0846 62.5693 48.0308 62.5157 47.9231C62.462 47.8154 62.462 47.6538 62.5157 47.4923L62.945 46.5769L61.6571 43.6692C61.6034 43.5077 61.6034 43.3461 61.6571 43.2385C61.7108 43.1308 61.8717 43.0769 62.0864 43.0769C62.1937 43.0769 62.301 43.0769 62.3547 43.1308C62.4084 43.1846 62.462 43.2923 62.5157 43.4L63.4279 45.6077L64.3402 43.3461C64.3938 43.1846 64.4475 43.1308 64.5548 43.0769C64.6085 43.0231 64.7158 43.0231 64.8768 43.0231C65.0378 43.0231 65.1451 43.0769 65.1987 43.1846C65.2524 43.2923 65.2524 43.4538 65.1987 43.6154L63.3743 47.7615C63.3206 47.9231 63.2669 47.9769 63.1596 48.0308C63.0523 48.0846 62.9986 48.0846 62.8376 48.0846ZM68.4184 46.7385C68.0965 46.7385 67.9355 46.5769 67.9355 46.2538V41.9461C67.9355 41.6231 68.0965 41.4615 68.4184 41.4615H70.9942C71.2625 41.4615 71.3698 41.5692 71.3698 41.8385C71.3698 42.1077 71.2625 42.2154 70.9942 42.2154H68.8477V43.6692H70.8332C71.1015 43.6692 71.2088 43.7769 71.2088 44.0461C71.2088 44.3154 71.1015 44.4231 70.8332 44.4231H68.8477V46.2C68.9014 46.5769 68.7404 46.7385 68.4184 46.7385ZM73.7309 46.4692C73.5163 46.4692 73.4089 46.3615 73.4089 46.1461V44.9077H72.2284C72.0138 44.9077 71.9064 44.8 71.9064 44.5846C71.9064 44.3692 72.0138 44.2615 72.2284 44.2615H73.4089V43.0769C73.4089 42.8615 73.5163 42.7538 73.7309 42.7538C73.9456 42.7538 74.0529 42.8615 74.0529 43.0769V44.2615H75.2334C75.4481 44.2615 75.5554 44.3692 75.5554 44.5846C75.5554 44.8 75.4481 44.9077 75.2334 44.9077H74.0529V46.1461C74.1065 46.3615 73.9992 46.4692 73.7309 46.4692ZM78.7214 46.7923C78.0238 46.7923 77.4336 46.6308 77.0579 46.2538C76.6823 45.8769 76.4676 45.3385 76.4676 44.5846V41.8923C76.4676 41.5692 76.6286 41.4077 76.9506 41.4077C77.2726 41.4077 77.4336 41.5692 77.4336 41.8923V44.5308C77.4336 45.0154 77.5409 45.3385 77.7555 45.6077C77.9702 45.8231 78.2921 45.9846 78.6678 45.9846C79.5264 45.9846 79.902 45.5 79.902 44.5846V41.9461C79.902 41.6231 80.063 41.4615 80.3849 41.4615C80.7069 41.4615 80.8679 41.6231 80.8679 41.9461V44.6385C80.8679 45.3923 80.7069 45.9308 80.3313 46.3077C80.0093 46.5769 79.419 46.7923 78.7214 46.7923ZM84.5169 46.7385C84.1949 46.7385 84.0339 46.5769 84.0339 46.2538V41.8923C84.0339 41.5692 84.1949 41.4077 84.5169 41.4077C84.8388 41.4077 84.9998 41.5692 84.9998 41.8923V46.2538C84.9998 46.5769 84.8388 46.7385 84.5169 46.7385ZM86.5023 46.7385C86.1804 46.7385 86.0194 46.5769 86.0194 46.2538V43.4538C86.0194 43.1308 86.1804 42.9692 86.4487 42.9692C86.7706 42.9692 86.878 43.1308 86.878 43.4538V43.6154C86.9853 43.4 87.1463 43.2385 87.3609 43.1308C87.5756 43.0231 87.7902 42.9692 88.0585 42.9692C88.9171 42.9692 89.3464 43.4538 89.3464 44.4769V46.3077C89.3464 46.6308 89.1854 46.7923 88.8634 46.7923C88.5415 46.7923 88.3805 46.6308 88.3805 46.3077V44.5308C88.3805 44.2615 88.3268 44.0461 88.2195 43.9385C88.1122 43.8308 87.9512 43.7231 87.7365 43.7231C87.4682 43.7231 87.2536 43.8308 87.0926 43.9923C86.9316 44.1538 86.878 44.3692 86.878 44.6923V46.3077C86.9316 46.5769 86.8243 46.7385 86.5023 46.7385ZM92.0295 46.7923C91.0636 46.7923 90.5806 46.3077 90.5806 45.3385V43.7769H90.205C89.9367 43.7769 89.8293 43.6692 89.8293 43.4538C89.8293 43.2385 89.9367 43.1308 90.205 43.1308H90.5806V42.4308C90.5806 42.1077 90.7416 41.9461 91.0636 41.9461C91.3855 41.9461 91.5465 42.1077 91.5465 42.4308V43.0769H92.3514C92.6197 43.0769 92.7271 43.1846 92.7271 43.4C92.7271 43.6154 92.6197 43.7231 92.3514 43.7231H91.5465V45.2308C91.5465 45.4461 91.6002 45.6615 91.7075 45.7692C91.8148 45.8769 91.9758 45.9308 92.1904 45.9308H92.4051C92.4588 45.9308 92.5124 45.9308 92.5661 45.8769C92.6197 45.8769 92.6734 45.8769 92.7271 45.9308C92.7807 45.9846 92.7807 46.0385 92.7807 46.2C92.7807 46.3077 92.7807 46.3615 92.7271 46.4692C92.6734 46.5769 92.6197 46.5769 92.5661 46.6308C92.5124 46.6308 92.4051 46.6846 92.2978 46.6846C92.1904 46.7385 92.0831 46.7923 92.0295 46.7923ZM94.9808 46.7923C94.5516 46.7923 94.2296 46.7385 93.9076 46.5769C93.5856 46.4154 93.371 46.2 93.21 45.9308C93.049 45.6615 92.9954 45.3385 92.9954 44.9077C92.9954 44.5308 93.049 44.2077 93.21 43.9385C93.371 43.6692 93.5856 43.4538 93.8539 43.2923C94.1223 43.1308 94.4442 43.0769 94.7662 43.0769C95.3028 43.0769 95.6784 43.2385 96.0004 43.5615C96.3224 43.8846 96.4297 44.3154 96.4297 44.9077C96.4297 45.0692 96.3224 45.1769 96.0541 45.1769H93.8003C93.854 45.8231 94.2296 46.1461 94.9272 46.1461C95.0345 46.1461 95.1955 46.1461 95.3565 46.0923C95.5175 46.0385 95.6784 45.9846 95.7858 45.9308C95.8931 45.8769 96.0004 45.8231 96.1077 45.8769C96.2151 45.9308 96.2687 45.9308 96.3224 46.0385C96.376 46.0923 96.376 46.2 96.3224 46.3077C96.3224 46.4154 96.2151 46.4692 96.1077 46.5769C95.9468 46.6846 95.7321 46.7923 95.5175 46.7923H94.9808ZM94.8199 43.6154C94.5515 43.6154 94.3369 43.7231 94.1759 43.8846C94.0149 44.0461 93.9076 44.2615 93.8539 44.5846H95.6784C95.6784 44.2615 95.5711 44.0461 95.4101 43.8846C95.3028 43.7231 95.0882 43.6154 94.8199 43.6154ZM97.6639 46.7385C97.3419 46.7385 97.181 46.5769 97.181 46.2538V43.4538C97.181 43.1308 97.3419 42.9692 97.6102 42.9692C97.9322 42.9692 98.0395 43.1308 98.0395 43.4538V43.6692C98.2005 43.2385 98.5762 43.0231 99.1664 42.9692C99.3811 42.9692 99.4884 43.0769 99.5421 43.3461C99.5421 43.6154 99.4347 43.7769 99.1664 43.7769H99.0054C98.4152 43.8308 98.0932 44.1538 98.0932 44.6923V46.3077C98.1469 46.5769 97.9859 46.7385 97.6639 46.7385ZM100.562 46.7385C100.24 46.7385 100.079 46.5769 100.079 46.2538V43.4538C100.079 43.1308 100.24 42.9692 100.508 42.9692C100.83 42.9692 100.937 43.1308 100.937 43.4538V43.6154C101.045 43.4 101.206 43.2385 101.42 43.1308C101.635 43.0231 101.85 42.9692 102.118 42.9692C102.976 42.9692 103.406 43.4538 103.406 44.4769V46.3077C103.406 46.6308 103.245 46.7923 102.923 46.7923C102.601 46.7923 102.44 46.6308 102.44 46.3077V44.5308C102.44 44.2615 102.386 44.0461 102.279 43.9385C102.171 43.8308 102.01 43.7231 101.796 43.7231C101.528 43.7231 101.313 43.8308 101.152 43.9923C100.991 44.1538 100.937 44.3692 100.937 44.6923V46.3077C101.045 46.5769 100.884 46.7385 100.562 46.7385ZM105.606 46.7923C105.337 46.7923 105.123 46.7385 104.908 46.6308C104.694 46.5231 104.533 46.4154 104.425 46.2C104.318 46.0385 104.264 45.8231 104.264 45.6077C104.264 45.3385 104.318 45.1231 104.479 44.9615C104.64 44.8 104.855 44.6923 105.177 44.6385C105.498 44.5846 105.928 44.5308 106.411 44.5308H106.679V44.3692C106.679 44.1 106.625 43.9385 106.518 43.8308C106.411 43.7231 106.25 43.6692 105.981 43.6692C105.82 43.6692 105.659 43.6692 105.498 43.7231C105.338 43.7769 105.177 43.8308 104.962 43.8846C104.855 43.9385 104.747 43.9385 104.64 43.8846C104.586 43.8308 104.533 43.7769 104.479 43.6692C104.425 43.5615 104.479 43.5077 104.479 43.4C104.533 43.2923 104.586 43.2385 104.694 43.1846C104.908 43.0769 105.123 43.0231 105.337 42.9692C105.552 42.9154 105.713 42.9154 105.928 42.9154C106.464 42.9154 106.84 43.0231 107.108 43.2923C107.377 43.5615 107.484 43.9385 107.484 44.4231V46.3077C107.484 46.6308 107.323 46.7923 107.055 46.7923C106.786 46.7923 106.625 46.6308 106.625 46.3077V46.1461C106.518 46.3615 106.411 46.5231 106.25 46.6308C106.089 46.7385 105.874 46.7923 105.606 46.7923ZM105.82 46.1461C106.089 46.1461 106.25 46.0385 106.411 45.8769C106.572 45.7154 106.625 45.5 106.625 45.2308V45.0692H106.357C105.874 45.0692 105.552 45.1231 105.391 45.1769C105.23 45.2308 105.123 45.3923 105.123 45.5538C105.123 45.7154 105.177 45.8769 105.284 45.9308C105.445 46.0923 105.606 46.1461 105.82 46.1461ZM110.167 46.7923C109.201 46.7923 108.718 46.3077 108.718 45.3385V43.7769H108.343C108.074 43.7769 107.967 43.6692 107.967 43.4538C107.967 43.2385 108.074 43.1308 108.343 43.1308H108.718V42.4308C108.718 42.1077 108.879 41.9461 109.201 41.9461C109.523 41.9461 109.684 42.1077 109.684 42.4308V43.0769H110.489C110.757 43.0769 110.865 43.1846 110.865 43.4C110.865 43.6154 110.757 43.7231 110.489 43.7231H109.684V45.2308C109.684 45.4461 109.738 45.6615 109.845 45.7692C109.952 45.8769 110.113 45.9308 110.328 45.9308H110.543C110.596 45.9308 110.65 45.9308 110.704 45.8769C110.757 45.8769 110.811 45.8769 110.865 45.9308C110.918 45.9846 110.918 46.0385 110.918 46.2C110.918 46.3077 110.918 46.3615 110.865 46.4692L110.704 46.6308C110.65 46.6308 110.543 46.6846 110.435 46.6846C110.328 46.7385 110.221 46.7923 110.167 46.7923ZM111.884 42.3231C111.723 42.3231 111.562 42.2692 111.455 42.2154C111.348 42.1077 111.294 42 111.294 41.8385C111.294 41.6769 111.348 41.5692 111.455 41.4615C111.562 41.3538 111.67 41.3538 111.884 41.3538C112.26 41.3538 112.421 41.5154 112.421 41.8385C112.421 42.1615 112.26 42.3231 111.884 42.3231ZM111.884 46.7385C111.723 46.7385 111.616 46.6846 111.562 46.6308C111.509 46.5231 111.455 46.4154 111.455 46.2538V43.5077C111.455 43.1846 111.616 43.0231 111.938 43.0231C112.26 43.0231 112.421 43.1846 112.421 43.5077V46.2538C112.421 46.4154 112.367 46.5231 112.313 46.6308C112.153 46.6846 112.045 46.7385 111.884 46.7385ZM114.997 46.7923C114.621 46.7923 114.299 46.7385 114.031 46.5769C113.762 46.4154 113.548 46.2 113.387 45.9308C113.226 45.6615 113.172 45.2846 113.172 44.9077C113.172 44.5308 113.226 44.2077 113.387 43.8846C113.548 43.6154 113.762 43.4 114.031 43.2385C114.299 43.0769 114.621 43.0231 114.997 43.0231C115.372 43.0231 115.694 43.0769 115.962 43.2385C116.231 43.4 116.445 43.6154 116.606 43.8846C116.767 44.1538 116.821 44.4769 116.821 44.9077C116.821 45.2846 116.767 45.6077 116.606 45.9308C116.445 46.2 116.231 46.4154 115.962 46.5769C115.694 46.6846 115.372 46.7923 114.997 46.7923ZM114.997 46.0923C115.265 46.0923 115.48 45.9846 115.64 45.7692C115.801 45.5538 115.909 45.2846 115.909 44.8538C115.909 44.4769 115.801 44.1538 115.64 43.9385C115.48 43.7231 115.265 43.6692 114.997 43.6692C114.728 43.6692 114.514 43.7769 114.353 43.9385C114.192 44.1538 114.084 44.4231 114.084 44.8538C114.084 45.2308 114.192 45.5538 114.353 45.7692C114.46 45.9846 114.675 46.0923 114.997 46.0923ZM118.055 46.7385C117.733 46.7385 117.572 46.5769 117.572 46.2538V43.4538C117.572 43.1308 117.733 42.9692 118.002 42.9692C118.324 42.9692 118.431 43.1308 118.431 43.4538V43.6154C118.538 43.4 118.699 43.2385 118.914 43.1308C119.128 43.0231 119.343 42.9692 119.611 42.9692C120.47 42.9692 120.899 43.4538 120.899 44.4769V46.3077C120.899 46.6308 120.738 46.7923 120.416 46.7923C120.094 46.7923 119.933 46.6308 119.933 46.3077V44.5308C119.933 44.2615 119.88 44.0461 119.772 43.9385C119.665 43.8308 119.504 43.7231 119.289 43.7231C119.021 43.7231 118.807 43.8308 118.646 43.9923C118.485 44.1538 118.431 44.3692 118.431 44.6923V46.3077C118.538 46.5769 118.377 46.7385 118.055 46.7385ZM123.099 46.7923C122.831 46.7923 122.616 46.7385 122.402 46.6308C122.187 46.5231 122.026 46.4154 121.919 46.2C121.812 46.0385 121.758 45.8231 121.758 45.6077C121.758 45.3385 121.812 45.1231 121.973 44.9615C122.134 44.8 122.348 44.6923 122.67 44.6385C122.992 44.5846 123.421 44.5308 123.904 44.5308H124.173V44.3692C124.173 44.1 124.119 43.9385 124.012 43.8308C123.904 43.7231 123.743 43.6692 123.475 43.6692C123.314 43.6692 123.153 43.6692 122.992 43.7231C122.831 43.7769 122.67 43.8308 122.455 43.8846C122.348 43.9385 122.241 43.9385 122.134 43.8846C122.08 43.8308 122.026 43.7769 121.973 43.6692C121.919 43.5615 121.973 43.5077 121.973 43.4C122.026 43.2923 122.08 43.2385 122.187 43.1846C122.402 43.0769 122.616 43.0231 122.831 42.9692C123.046 42.9154 123.207 42.9154 123.421 42.9154C123.958 42.9154 124.334 43.0231 124.602 43.2923C124.87 43.5615 124.978 43.9385 124.978 44.4231V46.3077C124.978 46.6308 124.817 46.7923 124.548 46.7923C124.28 46.7923 124.119 46.6308 124.119 46.3077V46.1461C124.012 46.3615 123.904 46.5231 123.743 46.6308C123.582 46.7385 123.368 46.7923 123.099 46.7923ZM123.314 46.1461C123.582 46.1461 123.743 46.0385 123.904 45.8769C124.065 45.7154 124.119 45.5 124.119 45.2308V45.0692H123.851C123.368 45.0692 123.046 45.1231 122.885 45.1769C122.724 45.2308 122.616 45.3923 122.616 45.5538C122.616 45.7154 122.67 45.8769 122.777 45.9308C122.938 46.0923 123.099 46.1461 123.314 46.1461ZM127.231 46.7923C126.426 46.7923 125.997 46.3077 125.997 45.3923V41.8923C125.997 41.5692 126.158 41.4077 126.48 41.4077C126.802 41.4077 126.963 41.5692 126.963 41.8923V45.3923C126.963 45.8231 127.124 46.0385 127.5 46.0385H127.714C127.768 46.0385 127.822 46.0385 127.875 46.0923C127.875 46.1461 127.929 46.2538 127.929 46.3615C127.929 46.4692 127.929 46.5769 127.875 46.6308C127.822 46.6846 127.768 46.7385 127.607 46.7385C127.446 46.7385 127.339 46.7923 127.231 46.7923ZM44.5391 22.8308H35.6313C35.5776 21.3231 35.4703 19.8692 35.3093 18.4692L33.2165 19.1154C33.3775 20.3 33.4848 21.5385 33.4848 22.8308H24.8454V15.9385C26.7235 15.8846 28.548 15.7231 30.2652 15.4538L30.5335 14.7C30.2652 14.2692 29.9968 13.7846 29.8359 13.3538C28.2797 13.6231 26.6162 13.7846 24.899 13.7846V3.71537C26.7772 4.14614 28.4943 5.81537 29.8895 8.18461C30.2115 7.43076 30.6408 6.78461 31.1774 6.13845C30.5871 5.22307 29.9432 4.46922 29.2456 3.76922C30.3725 4.0923 31.392 4.46922 32.4116 4.95384C33.0556 4.41537 33.8068 3.98461 34.6117 3.60768C31.392 1.88461 27.7431 0.915375 23.8258 0.915375C16.8498 0.915375 10.6251 4.03845 6.43948 8.93845C5.95653 9.47691 5.52724 10.0692 5.09795 10.6615C2.46854 14.4308 0.912354 18.9538 0.912354 23.9077C0.912354 28.7538 2.41487 33.2231 4.93696 36.8846C5.36625 37.4769 5.79554 38.0692 6.22484 38.6077C10.4641 43.6692 16.7425 46.8461 23.7721 46.8461C30.8018 46.8461 37.1338 43.6154 41.3194 38.6077C41.8024 38.0692 42.2317 37.4769 42.6073 36.8846C45.1294 33.1692 46.6319 28.7 46.6319 23.9077C46.6319 21.7 46.3099 19.5461 45.7196 17.5C45.1294 17.8769 44.4318 18.1461 43.7342 18.4154C44.2171 19.8154 44.4318 21.3231 44.5391 22.8308ZM18.406 3.82307C16.3668 5.76153 14.7033 8.72307 13.5765 12.3846C11.5373 11.7923 9.71283 11.0385 8.21031 10.1769C10.8934 7.16153 14.3814 4.89999 18.406 3.82307ZM6.86877 11.9C8.58594 12.9231 10.6787 13.8385 12.9862 14.4846C12.3959 17.0154 12.0203 19.8154 11.9666 22.8308H3.05881C3.27346 18.7923 4.66865 15.0231 6.86877 11.9ZM6.65413 35.6461C4.56133 32.5769 3.27346 28.9154 3.05881 24.9846H11.9129C11.9666 27.8385 12.2886 30.5308 12.8789 32.9538C10.5177 33.6538 8.42495 34.5692 6.65413 35.6461ZM7.99566 37.3692C9.49818 36.4538 11.3763 35.6461 13.4691 35.0538C14.596 38.8769 16.3132 42 18.406 43.9923C14.274 42.8615 10.6787 40.5461 7.99566 37.3692ZM22.6989 44.1C19.6939 43.4 17.1181 39.6846 15.5619 34.5154C17.762 34.0308 20.1768 33.7077 22.6989 33.6538V44.1ZM22.6989 31.5C19.9622 31.5538 17.3864 31.8769 14.9716 32.4154C14.435 30.1 14.1131 27.6231 14.0594 24.9846H22.6989V31.5ZM22.6989 22.8308H14.1131C14.1667 20.0846 14.5424 17.4461 15.1326 15.0231C17.4937 15.5615 20.0695 15.8308 22.7526 15.8846V22.8308H22.6989ZM22.6989 13.7846C20.2305 13.7308 17.8157 13.4077 15.6692 12.9231C17.2254 7.96922 19.8012 4.41537 22.6989 3.71537V13.7846ZM24.8454 24.9846H33.4848C33.4312 27.6231 33.1092 30.1538 32.5726 32.4154C30.2115 31.8769 27.5821 31.5538 24.8454 31.5V24.9846ZM24.8454 44.1V33.6538C27.3674 33.7077 29.7822 34.0308 31.9823 34.5154C30.4798 39.6846 27.8504 43.4 24.8454 44.1ZM29.1919 43.9923C31.2847 42 33.0019 38.9308 34.1288 35.0538C36.2216 35.6461 38.0461 36.4538 39.6022 37.3692C36.9192 40.5461 33.3239 42.8615 29.1919 43.9923ZM40.8901 35.6461C39.173 34.5692 37.0265 33.6538 34.6654 32.9538C35.202 30.4769 35.5776 27.8385 35.6313 24.9846H44.5391C44.3245 28.9154 43.0366 32.5769 40.8901 35.6461Z" fill="#223FA4"/>
<path d="M39.6557 3.71539C34.6115 3.71539 30.4796 6.89232 30.4796 10.8231C30.4796 12.1692 30.9625 13.4077 31.7675 14.4846L30.3186 18.7923L35.5774 17.2308C36.8116 17.7154 38.2068 17.9846 39.6557 17.9846C44.6999 17.9846 48.8318 14.8077 48.8318 10.8769C48.8318 6.89232 44.7535 3.71539 39.6557 3.71539Z" fill="#FA3C9E"/>
<path d="M35.8995 13.6769C36.3144 13.6769 36.6507 13.3394 36.6507 12.9231C36.6507 12.5067 36.3144 12.1692 35.8995 12.1692C35.4845 12.1692 35.1482 12.5067 35.1482 12.9231C35.1482 13.3394 35.4845 13.6769 35.8995 13.6769Z" fill="#223FA4"/>
<path d="M39.4412 13.6769C39.8561 13.6769 40.1925 13.3394 40.1925 12.9231C40.1925 12.5067 39.8561 12.1692 39.4412 12.1692C39.0263 12.1692 38.6899 12.5067 38.6899 12.9231C38.6899 13.3394 39.0263 13.6769 39.4412 13.6769Z" fill="#223FA4"/>
<path d="M42.8755 13.6769C43.2904 13.6769 43.6268 13.3394 43.6268 12.9231C43.6268 12.5067 43.2904 12.1692 42.8755 12.1692C42.4606 12.1692 42.1243 12.5067 42.1243 12.9231C42.1243 13.3394 42.4606 13.6769 42.8755 13.6769Z" fill="#223FA4"/>
</g>
<defs>
<clipPath id="clip0_19_441">
<rect width="181" height="49" fill="white"/>
</clipPath>
</defs>
</svg>
